<svg width="30" height="30" viewBox="0 0 30 30" fill="none" xmlns="http://www.w3.org/2000/svg">
<g clip-path="url(#clip0_187_398)">
<path d="M2.15625 0.345681C1.29492 0.621072 0.580078 1.35349 0.328125 2.22068C0.246094 2.50193 0.234375 3.05271 0.234375 6.56834C0.234375 10.3535 0.240234 10.6172 0.345703 10.9511C0.632812 11.8711 1.46484 12.6386 2.38477 12.832C2.56641 12.873 4.10742 12.8906 6.76758 12.8789L10.8691 12.8613L11.209 12.7265C11.9473 12.4277 12.5625 11.7949 12.8438 11.0449C12.9727 10.6933 12.9785 10.6758 12.9961 6.79685C13.0078 4.10154 12.9961 2.78318 12.9492 2.51951C12.7676 1.46482 11.9648 0.591775 10.9277 0.316384C10.6934 0.251931 9.78516 0.234353 6.5625 0.240212C2.79492 0.240212 2.4668 0.246072 2.15625 0.345681ZM10.4883 2.43162C10.8574 2.62498 10.8398 2.40818 10.8398 6.56248C10.8398 9.96677 10.8281 10.3594 10.7461 10.4824C10.5352 10.7812 10.5293 10.7812 6.58594 10.7812C3.28125 10.7812 2.90039 10.7695 2.71289 10.6816C2.33789 10.5058 2.34375 10.5937 2.34375 6.56248C2.34375 2.53123 2.33789 2.58982 2.70703 2.43162C3 2.30271 10.2422 2.30271 10.4883 2.43162Z" fill="white"/>
<path d="M22.2071 0.345739C20.9239 0.632849 19.9512 1.14261 19.084 1.98636C18.041 3.00004 17.4492 4.11332 17.1973 5.53129C16.67 8.56058 18.4981 11.5899 21.4453 12.5625C22.2598 12.8321 22.875 12.9141 23.7539 12.8731C25.3711 12.7969 26.6953 12.211 27.8672 11.045C28.7461 10.1778 29.25 9.32816 29.5664 8.19144C29.7539 7.51175 29.8184 6.28129 29.7071 5.58402C29.3145 3.11136 27.5039 1.1016 25.0782 0.43363C24.3047 0.222692 22.9453 0.181677 22.2071 0.345739ZM24.4629 2.49027C25.6407 2.79496 26.6485 3.61527 27.1875 4.71683C27.5098 5.36722 27.6211 5.83011 27.6211 6.56254C27.627 7.33011 27.545 7.6641 27.1817 8.42582C26.9297 8.94144 26.8184 9.09965 26.4082 9.5098C26.0215 9.90238 25.8223 10.043 25.3711 10.2715C24.6563 10.6289 24.2051 10.7403 23.4668 10.7403C22.752 10.7403 22.2188 10.6172 21.5918 10.3125C20.502 9.78519 19.6524 8.7305 19.3653 7.54691C19.2481 7.03715 19.2422 6.11136 19.3653 5.58988C19.8809 3.3516 22.2364 1.92191 24.4629 2.49027Z" fill="white"/>
<path d="M2.22656 17.2207C1.33008 17.5078 0.732422 18.0879 0.404297 18.9844L0.263672 19.3652V23.4375C0.263672 27.2637 0.269531 27.5273 0.375 27.832C0.679687 28.7285 1.33594 29.3789 2.21484 29.6484C2.57227 29.7598 2.76562 29.7656 6.64453 29.7656C11.0098 29.7656 10.9629 29.7656 11.5723 29.4609C11.8945 29.291 12.4512 28.7461 12.6504 28.3945C13.0137 27.7559 13.0078 27.8496 13.0078 23.4316C13.0078 19.6465 13.002 19.3828 12.8965 19.0488C12.6152 18.1465 11.8008 17.3789 10.8926 17.1738C10.7285 17.1328 9.11719 17.1152 6.5918 17.1152C2.88281 17.1152 2.51953 17.127 2.22656 17.2207ZM10.5234 19.3066C10.9043 19.4648 10.8984 19.3828 10.8984 23.4668C10.8984 27.5391 10.9102 27.4102 10.5176 27.5742C10.2129 27.7031 3 27.6973 2.75391 27.5684C2.38477 27.375 2.40234 27.5918 2.40234 23.4375C2.40234 19.2539 2.38477 19.4766 2.77734 19.3008C3.05859 19.1777 10.2305 19.1836 10.5234 19.3066Z" fill="white"/>
<path d="M18.9844 17.2207C18.1055 17.502 17.4844 18.0996 17.1504 18.9727C17.0274 19.3008 17.0215 19.3652 17.0039 23.2031C16.9922 25.8926 17.0039 27.2168 17.0508 27.4805C17.2324 28.5293 17.9824 29.3555 19.0371 29.6719C19.3184 29.7539 19.8516 29.7656 23.4082 29.7656C27.7676 29.7656 27.7207 29.7656 28.3301 29.4609C28.6524 29.291 29.209 28.7461 29.4082 28.3945C29.7715 27.7559 29.7656 27.8496 29.7656 23.4316C29.7656 19.6465 29.7598 19.3828 29.6543 19.0488C29.3731 18.1465 28.5586 17.3789 27.6504 17.1738C27.4863 17.1328 25.875 17.1152 23.3496 17.1152C19.6406 17.1152 19.2774 17.127 18.9844 17.2207ZM27.2754 19.3125C27.668 19.4941 27.6563 19.3945 27.6563 23.4316C27.6563 27.4277 27.6621 27.3867 27.3106 27.5684C27.1524 27.6504 26.707 27.6563 23.3145 27.6445L19.5 27.627L19.3301 27.4336L19.1602 27.2461V23.4434C19.1602 19.6934 19.1602 19.6406 19.2832 19.4883C19.3477 19.4063 19.4883 19.3125 19.5879 19.2832C19.6934 19.2539 21.3926 19.2246 23.4258 19.2246C26.6426 19.2188 27.1055 19.2305 27.2754 19.3125Z" fill="white"/>
</g>
<defs>
<clipPath id="clip0_187_398">
<rect width="30" height="30" fill="white"/>
</clipPath>
</defs>
</svg>
