<svg width="36" height="36" viewBox="0 0 36 36" fill="none" xmlns="http://www.w3.org/2000/svg">
<path d="M14.0203 2.03203C13.5211 2.25703 13.1836 2.69297 12.5859 3.86719C12.2836 4.46484 11.9672 5.02031 11.8899 5.09063C11.7211 5.24531 11.4609 5.22422 10.2445 4.95C8.86642 4.63359 8.14923 4.71094 7.60079 5.22422C7.13673 5.66719 7.05235 6.03281 7.00313 7.76953C6.98907 8.34609 6.93985 8.90859 6.89767 9.00703C6.82032 9.225 6.57423 9.32344 5.34376 9.60469C3.88829 9.94219 3.26954 10.343 3.05157 11.0883C2.87579 11.7 2.9672 12.0867 3.62813 13.5141C3.91642 14.1187 4.07813 14.5617 4.07813 14.7234C4.07813 14.9836 4.02892 15.0398 2.61563 16.193C1.74376 16.9102 1.3711 17.6484 1.53985 18.3305C1.69454 18.9492 2.10235 19.4273 3.19923 20.2781C3.88126 20.8055 4.07813 21.0305 4.07813 21.2906C4.07813 21.4313 3.90235 21.9023 3.62813 22.4859C2.9672 23.9133 2.87579 24.3 3.05157 24.9117C3.26954 25.657 3.88829 26.0578 5.34376 26.3953C6.5672 26.6766 6.82032 26.775 6.89767 26.9859C6.93985 27.0914 6.98204 27.682 7.00313 28.3008C7.0172 28.9195 7.05235 29.5523 7.07345 29.707C7.17892 30.3609 7.56563 30.8813 8.1211 31.1203C8.55001 31.3031 9.29532 31.268 10.4133 31.0148C11.5664 30.7547 11.7422 30.7477 11.932 30.9586C12.0094 31.043 12.3188 31.5844 12.607 32.168C13.3664 33.6727 13.8234 34.0945 14.7024 34.1016C15.2297 34.1016 15.8414 33.7922 16.7695 33.0398C18.0352 32.0273 17.9508 32.0203 19.3359 33.1172C20.257 33.8414 20.7774 34.1016 21.3047 34.1016C22.1766 34.0945 22.6336 33.6727 23.393 32.168C23.6813 31.5844 23.9906 31.043 24.068 30.9586C24.2578 30.7477 24.4195 30.7547 25.5797 31.0148C27.218 31.3875 27.9211 31.3031 28.4695 30.6844C28.8492 30.2484 28.9547 29.7773 28.9969 28.3359C29.0109 27.6961 29.0602 27.0914 29.0953 26.993C29.1797 26.775 29.4258 26.6766 30.6563 26.3953C32.0977 26.0648 32.7305 25.65 32.9484 24.9117C33.1242 24.3 33.0328 23.9133 32.3719 22.4859C32.0977 21.9023 31.9219 21.4313 31.9219 21.2906C31.9219 21.0305 32.1188 20.8055 32.8008 20.2781C33.8977 19.4273 34.3055 18.9492 34.4602 18.3375C34.6289 17.6484 34.2563 16.9102 33.3844 16.193C31.9711 15.0398 31.9219 14.9836 31.9219 14.7234C31.9219 14.5617 32.0836 14.1187 32.3719 13.5141C33.0328 12.0867 33.1242 11.7 32.9484 11.0883C32.7305 10.343 32.1609 9.96328 30.7406 9.62578C29.4047 9.30938 29.1797 9.225 29.1024 9.00703C29.0602 8.90859 29.018 8.34609 28.9969 7.76953C28.9547 6.04688 28.8633 5.66719 28.3992 5.22422C27.8508 4.71094 27.1336 4.63359 25.7555 4.95C24.5391 5.22422 24.2789 5.24531 24.1102 5.09063C24.0328 5.02031 23.7164 4.46484 23.4141 3.86719C22.6336 2.32734 22.1766 1.90547 21.3047 1.89844C20.7774 1.89844 20.257 2.15859 19.3359 2.88281C17.9508 3.97969 18.0352 3.97266 16.7695 2.96016C15.8414 2.20781 15.2297 1.89844 14.7024 1.89844C14.4703 1.89844 14.1891 1.95469 14.0203 2.03203ZM15.2649 3.69844C15.5039 3.88125 15.9328 4.20469 16.2141 4.42969C16.9453 5.01328 17.4305 5.23125 18 5.23125C18.6188 5.23125 19.0266 5.02734 20.1234 4.16953C21.1852 3.34688 21.2555 3.31172 21.4524 3.4875C21.5297 3.55781 21.832 4.08516 22.1203 4.65469C22.9781 6.34922 23.4563 6.73594 24.6094 6.65859C24.9399 6.6375 25.5586 6.53906 25.9945 6.44063C26.8524 6.24375 27.3094 6.2086 27.4008 6.34219C27.4289 6.39141 27.4781 7.03125 27.4992 7.76953C27.5766 10.1461 27.8367 10.4625 30.15 11.032C30.7828 11.1867 31.3453 11.3484 31.4016 11.3977C31.5774 11.5453 31.507 11.8055 31.043 12.7969C30.3399 14.2875 30.2414 14.8711 30.5859 15.5391C30.7969 15.9469 31.0922 16.2633 31.8867 16.9031C32.6883 17.55 32.9766 17.8383 32.9766 18C32.9766 18.1547 32.6531 18.4711 31.8516 19.125C30.1359 20.5102 30.0305 21.0586 31.043 23.2031C31.507 24.1945 31.5774 24.4547 31.4016 24.6023C31.3453 24.6516 30.7828 24.8133 30.15 24.968C28.8914 25.2773 28.3078 25.5375 27.9774 25.9383C27.6328 26.3531 27.5484 26.7539 27.4992 28.2305C27.4781 28.9617 27.4289 29.6086 27.4008 29.6508C27.3094 29.7914 26.8594 29.7562 25.8399 29.5312C23.6813 29.0531 23.1539 29.3063 22.1344 31.3242C21.8391 31.9078 21.5297 32.4422 21.4524 32.5125C21.2555 32.6883 21.1852 32.6531 20.1234 31.8305C19.0266 30.9727 18.6188 30.7688 18 30.7688C17.3813 30.7688 16.9734 30.9727 15.8766 31.8305C14.8149 32.6531 14.7445 32.6883 14.5477 32.5125C14.4703 32.4422 14.168 31.9148 13.8797 31.3453C13.0219 29.6508 12.5438 29.2641 11.3906 29.3414C11.0602 29.3625 10.4414 29.4609 10.0055 29.5594C9.14767 29.7562 8.69063 29.7914 8.59923 29.6508C8.5711 29.6086 8.52188 28.9617 8.50079 28.2305C8.42345 25.8539 8.16329 25.5375 5.85001 24.968C5.2172 24.8133 4.6547 24.6516 4.59845 24.6023C4.42267 24.4547 4.49298 24.1945 4.95704 23.2031C5.96954 21.0516 5.85001 20.482 4.11329 19.0898C3.33985 18.4781 3.02345 18.1547 3.02345 17.993C3.02345 17.8383 3.29767 17.5641 4.14142 16.882C5.86407 15.4898 5.96954 14.9414 4.95704 12.7969C4.48595 11.8055 4.42267 11.5453 4.60548 11.3906C4.66173 11.3484 5.2172 11.1797 5.84298 11.025C7.40392 10.6453 7.87501 10.3922 8.18438 9.78047C8.42345 9.30938 8.50782 8.76094 8.50782 7.62188C8.50782 6.37734 8.54298 6.25781 8.9297 6.25781C9.09142 6.25781 9.57657 6.34219 10.0055 6.44063C12.2766 6.96094 12.8391 6.70781 13.8586 4.68984C14.3578 3.69844 14.5758 3.375 14.7375 3.375C14.7797 3.375 15.0188 3.52266 15.2649 3.69844Z" fill="white"/>
<path d="M13.6758 11.693C12.6211 11.9602 11.8969 12.7266 11.6789 13.7953C11.4469 14.9062 12.0586 16.0805 13.1344 16.6078C13.5563 16.8188 13.6617 16.8398 14.2383 16.8398C14.8008 16.8398 14.9203 16.8117 15.3281 16.6219C15.9117 16.3477 16.3477 15.9117 16.6219 15.3281C16.8117 14.9203 16.8399 14.8008 16.8399 14.2383C16.8399 13.6617 16.8188 13.5563 16.6078 13.1344C16.0664 12.0305 14.8008 11.4117 13.6758 11.693ZM14.7656 13.2539C15.2086 13.4859 15.4617 14.0625 15.3281 14.5477C15.2297 14.9133 14.8008 15.3 14.4211 15.3633C14.0414 15.4266 13.5352 15.1875 13.3031 14.8359C13.0922 14.5195 13.1063 13.9219 13.3453 13.5914C13.6336 13.1836 14.3156 13.0219 14.7656 13.2539Z" fill="white"/>
<path d="M22.8867 12.1008C22.6688 12.2203 12.2414 22.6547 12.1219 22.8656C11.8547 23.3719 12.1641 23.9766 12.6914 23.9766C12.832 23.9766 13.0148 23.9414 13.0992 23.8992C13.3172 23.7867 23.7516 13.3664 23.8781 13.1344C24.1523 12.6211 23.8359 12.0234 23.2945 12.0234C23.1469 12.0234 22.9641 12.0586 22.8867 12.1008Z" fill="white"/>
<path d="M21.0586 19.2164C20.2641 19.4836 19.7156 19.9547 19.3781 20.6719C19.1812 21.0797 19.1602 21.1992 19.1602 21.7617C19.1602 22.3383 19.1812 22.4438 19.3922 22.8656C19.9195 23.9414 21.0938 24.5531 22.2047 24.3211C23.3156 24.0961 24.1031 23.3086 24.3281 22.2047C24.5461 21.1078 23.9414 19.9195 22.8867 19.3992C22.3594 19.1391 21.5367 19.0617 21.0586 19.2164ZM22.2188 20.7563C22.6828 20.9953 22.8727 21.3117 22.8375 21.8039C22.7883 22.4649 22.3734 22.8516 21.7055 22.8516C21.2977 22.8516 20.9672 22.6266 20.7562 22.2047C20.5312 21.7617 20.5875 21.3961 20.932 21.0164C21.3187 20.5945 21.7266 20.5102 22.2188 20.7563Z" fill="white"/>
</svg>
