<svg width="29" height="29" viewBox="0 0 29 29" fill="none" xmlns="http://www.w3.org/2000/svg">
<path d="M13.4087 0.0284004C11.305 0.226742 9.706 0.674423 7.95957 1.55279C5.65746 2.70316 3.52546 4.65823 2.12491 6.90231C1.10995 8.52303 0.372817 10.6141 0.0722953 12.7108C-0.0240984 13.3795 -0.0240984 15.6123 0.0722953 16.281C0.310445 17.9527 0.752722 19.4148 1.44449 20.8145C2.22131 22.4012 2.98679 23.4666 4.24558 24.7303C5.49869 25.977 6.58171 26.7533 8.107 27.5014C9.173 28.0227 9.85909 28.2777 10.9421 28.5497C13.7772 29.2638 16.6237 29.1278 19.3907 28.1474C20.2413 27.8471 21.7042 27.1104 22.4527 26.6117C24.1651 25.467 25.7017 23.8916 26.813 22.1462C27.2213 21.5058 27.879 20.1458 28.1455 19.3921C29.4781 15.6406 29.2456 11.6171 27.4935 8.09802C26.7904 6.6813 26.0022 5.56493 24.8965 4.42589C23.6831 3.16784 22.4583 2.27815 20.865 1.49045C19.1866 0.66309 17.6216 0.215406 15.7618 0.0454006C15.1834 -0.00559998 13.8736 -0.0169334 13.4087 0.0284004ZM16.4989 1.96647C20.0598 2.56716 23.065 4.50522 25.0666 7.503C26.0816 9.01605 26.745 10.7501 27.0569 12.6542C27.193 13.5212 27.193 15.4706 27.0569 16.3376C26.4445 20.1231 24.3692 23.2626 21.1485 25.2913C19.7706 26.1583 18.1036 26.7703 16.3288 27.0594C15.4556 27.1954 13.5107 27.1954 12.6432 27.0537C8.91784 26.4473 5.85025 24.4696 3.81464 21.3528C2.86204 19.8964 2.22131 18.1964 1.91512 16.3376C1.77903 15.4706 1.77903 13.5212 1.91512 12.6542C2.3744 9.83775 3.56515 7.486 5.52138 5.54226C7.6874 3.38319 10.4091 2.11381 13.4654 1.83613C14.0777 1.77946 15.8355 1.8588 16.4989 1.96647Z" fill="white"/>
<path d="M15.0247 9.13505C14.7922 9.23705 14.554 9.52606 14.5087 9.76407C14.4179 10.2514 14.4293 10.2684 16.1474 11.9855L17.7407 13.5892L13.2272 13.6005C8.76474 13.6175 8.70804 13.6175 8.55494 13.7365C8.25442 13.9576 8.1637 14.1389 8.1637 14.4959C8.1637 14.8529 8.25442 15.0343 8.55494 15.2553C8.70804 15.3743 8.76474 15.3743 13.2272 15.3913L17.7407 15.4026L16.1474 17.0063C14.4236 18.7291 14.4179 18.7404 14.5143 19.2391C14.5654 19.5167 14.9056 19.8568 15.1834 19.9078C15.6994 20.0041 15.6144 20.0778 18.2964 17.3973C20.4681 15.2213 20.7799 14.8926 20.8083 14.7112C20.9047 14.1899 20.9727 14.2692 18.3531 11.6398C16.9809 10.2684 15.8525 9.18038 15.7504 9.13505C15.5236 9.03871 15.2458 9.03871 15.0247 9.13505Z" fill="white"/>
</svg>
