<svg width="30" height="30" viewBox="0 0 30 30" fill="none" xmlns="http://www.w3.org/2000/svg">
<g clip-path="url(#clip0_178_363)">
<path d="M15.9338 29.1244C18.0326 28.9002 19.6242 28.4329 21.3577 27.5335C23.6429 26.3552 25.7482 24.3749 27.1193 22.1148C28.113 20.4824 28.8234 18.3834 29.0976 16.2842C29.1856 15.6147 29.158 13.3832 29.0534 12.7161C28.7948 11.0482 28.3349 9.5925 27.6266 8.20215C26.8311 6.62595 26.0533 5.57066 24.7803 4.32325C23.5132 3.09276 22.4218 2.33025 20.8891 1.60153C19.8178 1.09367 19.1294 0.847303 18.0443 0.588854C15.2036 -0.0896712 12.3622 0.081488 9.61045 1.09555C8.76462 1.40625 7.31253 2.16062 6.57111 2.66829C4.87487 3.83354 3.35954 5.42704 2.27108 7.1852C1.87123 7.83024 1.2311 9.19765 0.97424 9.95421C-0.310253 13.72 -0.0282131 17.7383 1.76543 21.2338C2.48527 22.641 3.28634 23.7469 4.40485 24.8716C5.63245 26.1139 6.86681 26.988 8.46805 27.7555C10.1547 28.5616 11.7234 28.9897 13.5832 29.1366C14.1615 29.1804 15.47 29.1755 15.9338 29.1244ZM12.8231 27.2257C9.25895 26.6694 6.23322 24.7697 4.19683 21.7984C3.16431 20.2988 2.48019 18.5739 2.1451 16.6748C1.99844 15.8099 1.97429 13.8617 2.09949 12.9934C2.66427 9.20255 4.69828 6.03921 7.89009 3.97177C9.25562 3.08818 10.9131 2.45588 12.6823 2.14506C13.5528 1.99833 15.4954 1.97425 16.3637 2.10511C20.0922 2.665 23.1807 4.60364 25.2526 7.69344C26.2221 9.1372 26.8832 10.8284 27.212 12.6822C27.3587 13.5471 27.3828 15.4954 27.2576 16.3636C26.8338 19.1841 25.6735 21.5492 23.7436 23.5161C21.6069 25.7007 18.9041 27.0031 15.8548 27.3184C15.2438 27.3826 13.4871 27.3251 12.8231 27.2257Z" fill="white"/>
<path d="M14.2069 20.0429C14.4379 19.9381 14.6722 19.6463 14.7145 19.4079C14.7991 18.9197 14.7876 18.9028 13.0502 17.208L11.4389 15.6249L15.947 15.5578C20.4041 15.4855 20.4607 15.4848 20.6121 15.364C20.9096 15.1394 20.998 14.957 20.9935 14.6002C20.9891 14.2434 20.8962 14.0633 20.5933 13.8461C20.4389 13.7291 20.3823 13.7298 15.9248 13.768L11.4164 13.8126L12.9881 12.1901C14.6885 10.447 14.694 10.4356 14.5915 9.93838C14.5371 9.66149 14.1931 9.32588 13.9149 9.27835C13.3984 9.18845 13.4824 9.11377 10.8367 11.8259C8.69448 14.0276 8.38705 14.3599 8.36098 14.5415C8.27115 15.0638 8.2022 14.9853 10.8514 17.5808C12.2389 18.9344 13.3795 20.0079 13.482 20.0519C13.7097 20.1454 13.9872 20.142 14.2069 20.0429Z" fill="white"/>
</g>
<defs>
<clipPath id="clip0_178_363">
<rect width="29" height="29" fill="white" transform="translate(29.3571 28.9978) rotate(179.29)"/>
</clipPath>
</defs>
</svg>
