<svg width="50" height="50" viewBox="0 0 50 50" fill="none" xmlns="http://www.w3.org/2000/svg">
<path d="M22.0215 3.90623L19.7559 6.16209L19.6484 5.78123C19.4824 5.23436 18.8477 4.29686 18.3496 3.86717C18.1152 3.66209 17.5879 3.33006 17.1875 3.14452C16.5332 2.82225 16.3574 2.78319 15.4981 2.75389C14.4141 2.70506 13.9063 2.81248 13.0371 3.2617C11.875 3.86717 10.9277 5.12694 10.6543 6.42577C10.2149 8.51561 11.2598 10.6055 13.2324 11.582L13.9746 11.9531L11.7774 14.1504C10.0391 15.8887 9.56056 16.4258 9.51173 16.6797C9.44337 17.0019 9.4922 17.0508 11.7285 19.2871C12.9785 20.5469 13.9844 21.5918 13.9551 21.6113C13.9356 21.6211 13.584 21.7969 13.1738 22.0019C11.8164 22.6562 10.8887 23.916 10.625 25.4687C10.3223 27.2656 11.25 29.2285 12.8711 30.1758L13.457 30.5273L12.4219 33.4473L11.3867 36.3769V37.3535L11.377 38.3301L13.0762 42.2851C14.7656 46.2402 14.7656 46.2402 14.834 47.1582C14.8828 47.9492 14.9219 48.0859 15.127 48.2519C15.4395 48.5156 15.8789 48.4863 16.1621 48.1933C16.377 47.9883 16.4063 47.8711 16.4063 47.1973C16.4063 46.7773 16.3379 46.2109 16.2695 45.9473C16.1914 45.6738 15.459 43.8965 14.6484 41.9922C13.8379 40.0879 13.1055 38.3594 13.0274 38.1445C12.7539 37.4121 12.832 37.041 13.9453 33.8769L14.9902 30.8594H15.293C16.9629 30.8594 18.6621 29.7656 19.4043 28.2324C19.6094 27.8223 19.7852 27.4707 19.7949 27.4512C19.8145 27.4219 20.1172 27.6855 20.459 28.0273L21.0938 28.6523V32.8418V37.0215L21.3379 37.2558C21.6504 37.5781 22.0996 37.5781 22.4121 37.2558L22.6563 37.0215V31.2402C22.6563 26.9922 22.6856 25.3515 22.7734 25.0586C22.9297 24.5215 23.7402 23.7109 24.2774 23.5547C25.1172 23.3105 25.8594 23.4668 26.5039 24.0332C27.334 24.7656 27.2852 24.4238 27.3438 30.8105C27.4121 37.1777 27.3731 36.8652 28.1836 38.5644C28.7402 39.7363 28.9063 40.4004 28.9063 41.4062C28.9063 42.4902 28.7109 43.1738 27.9981 44.5703L27.4024 45.7519L27.3633 46.8457C27.3242 47.9101 27.3242 47.9394 27.5684 48.1836C27.9004 48.5156 28.3496 48.5156 28.6621 48.1933C28.8867 47.9785 28.9063 47.8808 28.9063 47.1387C28.9063 46.3281 28.916 46.289 29.4922 45.1074C30.2246 43.584 30.4688 42.6562 30.4688 41.4062C30.4688 40.2441 30.2539 39.3359 29.6582 38.0273C29.1504 36.914 28.9746 36.3965 29.0234 36.1719C29.043 36.0449 29.1309 36.084 29.4434 36.3281C30.5469 37.2265 32.4219 37.7051 33.5352 37.3828C34.0723 37.2265 34.8828 36.416 35.0391 35.8789C35.1172 35.6055 35.1563 34.6777 35.1563 33.0957V30.7129L35.6348 30.5371C36.8262 30.1172 37.9297 29.0332 38.3887 27.8515C38.6524 27.1582 38.7402 25.8691 38.5742 25.1074C38.418 24.414 38.0176 23.6035 37.5391 23.0566C37.1094 22.5586 36.1719 21.9238 35.625 21.7578L35.2442 21.6504L37.5 19.3848C39.5606 17.3144 39.7461 17.0996 39.7461 16.7871C39.7461 16.4844 39.541 16.25 37.0313 13.7402C34.7949 11.5039 34.2774 11.0351 34.0527 11.0351C33.6035 11.0351 33.4082 11.2402 33.2031 11.914C32.959 12.7441 32.5391 13.3887 32.0117 13.75C29.9805 15.1465 27.2949 13.9355 27.0801 11.5332C26.9336 9.99022 27.8613 8.67186 29.3945 8.23241C30.0684 8.04686 30.3711 7.77342 30.3711 7.3828C30.3711 7.11913 30.0391 6.74803 27.6563 4.36522C25.1563 1.87498 24.9219 1.66014 24.6094 1.66014C24.3067 1.66014 24.0918 1.84569 22.0215 3.90623ZM26.4063 5.26366L28.1445 7.00194L27.7149 7.25584C27.4805 7.39256 27.0703 7.74413 26.7871 8.02733C25.0293 9.89256 25.0586 12.7344 26.8555 14.541C28.3203 15.9961 30.4688 16.3183 32.3438 15.3711C32.959 15.0586 33.8184 14.2578 34.1504 13.6914L34.4043 13.2617L36.1426 15L37.8906 16.748L35.3027 19.3359C32.8906 21.748 32.7149 21.9531 32.7149 22.2754C32.7149 22.8418 32.9981 23.0176 33.9844 23.0664C35.3613 23.1348 36.2988 23.7207 36.8359 24.8535C37.0606 25.3418 37.1094 25.5664 37.1094 26.1816C37.1094 26.8066 37.0606 27.0117 36.8164 27.5195C36.2402 28.6719 35.3125 29.248 34.0332 29.248C33.3692 29.248 33.1641 29.209 32.6953 28.9746C31.9922 28.623 31.3184 27.8906 31.0938 27.2168C30.9863 26.914 30.9277 26.4453 30.9277 26.0351C30.9375 25.4199 30.918 25.332 30.6641 25.0781C30.2442 24.668 29.9512 24.7265 29.2871 25.3613L28.9258 25.7031L28.8574 25.2148C28.7793 24.5996 28.3496 23.6914 27.9297 23.2031C26.2988 21.3476 23.3789 21.4746 21.875 23.457C21.3965 24.0918 21.1817 24.7168 21.1231 25.664L21.0645 26.4746L20.2051 25.625C19.3945 24.834 19.3164 24.7851 19.0234 24.8437C18.5059 24.9512 18.418 25.1074 18.3496 26.1035C18.2813 27.1289 18.0176 27.7734 17.4121 28.3789C16.2402 29.5508 14.2188 29.5508 13.0371 28.3691C12.4317 27.7637 12.1582 27.0508 12.168 26.123C12.168 25.1953 12.4121 24.5898 13.0371 23.9648C13.6524 23.3594 14.2285 23.125 15.293 23.0566C16.2988 22.9883 16.4551 22.9101 16.5625 22.3828C16.6309 22.0605 16.5723 22.0019 14.0039 19.4238L11.377 16.7969L13.8867 14.2773C15.2637 12.9004 16.4356 11.6699 16.4942 11.5527C16.6602 11.2207 16.6211 11.0449 16.3184 10.7324C16.0449 10.4687 15.9766 10.4492 15.2637 10.4492C14.668 10.4492 14.3945 10.4004 14.0039 10.2148C13.3008 9.89256 12.7442 9.35545 12.4317 8.71092C12.0508 7.91991 12.0508 6.82616 12.4317 6.03514C12.7442 5.40038 13.3008 4.8535 13.9551 4.55077C14.5899 4.2578 15.8789 4.2578 16.5137 4.55077C17.6563 5.07811 18.2715 6.04491 18.3399 7.41209C18.3887 8.40819 18.5645 8.69139 19.1309 8.69139C19.4531 8.69139 19.6582 8.51561 22.0703 6.1035C23.4961 4.67772 24.6582 3.51561 24.6582 3.51561C24.6582 3.51561 25.4395 4.29686 26.4063 5.26366ZM29.834 28.1836C30.459 29.4531 31.5625 30.3613 32.8711 30.6738C33.1348 30.7324 33.4082 30.8008 33.4766 30.8203C33.5645 30.8496 33.5938 31.3965 33.5938 33.1543V35.459L33.3399 35.7129C33.1055 35.9473 33.0469 35.957 32.4512 35.9082C31.1035 35.7812 29.9414 34.9609 29.3262 33.7109L28.9551 32.9687L28.9258 30.4883L28.8867 28.0078L29.1602 27.7246C29.3067 27.5683 29.4336 27.4414 29.4434 27.4414C29.4531 27.4414 29.6289 27.7734 29.834 28.1836Z" fill="white"/>
<path d="M3.33984 5.27347C3.22265 5.38089 3.10546 5.57621 3.07617 5.69339C2.93945 6.21097 3.12499 6.36722 5.39062 7.66605C6.58203 8.35941 7.68554 8.94535 7.82226 8.96488C8.42773 9.05277 8.86718 8.18363 8.44726 7.71488C8.17382 7.41214 4.05273 5.07816 3.78906 5.07816C3.6621 5.07816 3.45703 5.16605 3.33984 5.27347Z" fill="white"/>
<path d="M43.8574 6.2988C42.7051 6.96286 41.6797 7.59763 41.5723 7.70505C41.123 8.15427 41.5527 9.05271 42.1777 8.96482C42.3144 8.94529 43.4082 8.36911 44.5898 7.68552C46.8555 6.38669 47.0898 6.18161 46.9238 5.66404C46.8262 5.3613 46.4746 5.0781 46.2012 5.0781C46.0547 5.08786 45.0098 5.62497 43.8574 6.2988Z" fill="white"/>
<path d="M1.80664 16.6504C1.65039 16.7969 1.5625 17.002 1.5625 17.1875C1.5625 17.373 1.65039 17.5781 1.80664 17.7246L2.04102 17.9688H4.6875H7.33398L7.56836 17.7246C7.89062 17.4121 7.89062 16.9629 7.56836 16.6504L7.33398 16.4062H4.6875H2.04102L1.80664 16.6504Z" fill="white"/>
<path d="M42.4316 16.6504C42.2754 16.7969 42.1875 17.002 42.1875 17.1875C42.1875 17.373 42.2754 17.5781 42.4316 17.7246L42.666 17.9688H45.3125H47.959L48.1934 17.7246C48.3496 17.5781 48.4375 17.373 48.4375 17.1875C48.4375 17.002 48.3496 16.7969 48.1934 16.6504L47.959 16.4062H45.3125H42.666L42.4316 16.6504Z" fill="white"/>
<path d="M5.46875 26.6602C3.18359 27.9688 2.93945 28.1738 3.0664 28.6719C3.15429 29.0137 3.47656 29.2969 3.77929 29.2969C4.10156 29.2969 8.22265 26.9336 8.49609 26.5918C8.7207 26.3086 8.73047 26.1816 8.58398 25.8496C8.46679 25.5957 8.125 25.3906 7.83203 25.3906C7.74414 25.3906 6.67968 25.957 5.46875 26.6602Z" fill="white"/>
<path d="M41.7285 25.5078C41.4746 25.6348 41.2695 26.084 41.3476 26.3477C41.3867 26.4453 41.5039 26.6211 41.6309 26.7285C42.0508 27.1094 45.9668 29.2969 46.2305 29.2969C46.5234 29.2969 46.8457 29.0137 46.9336 28.6719C47.0508 28.1738 46.7969 27.959 44.5215 26.6504C43.3203 25.957 42.2461 25.3906 42.1387 25.4004C42.0312 25.4004 41.8457 25.4492 41.7285 25.5078Z" fill="white"/>
</svg>
