<svg width="30" height="30" viewBox="0 0 30 30" fill="none" xmlns="http://www.w3.org/2000/svg">
<path d="M13.0191 0.12219C12.6792 0.356565 12.6089 0.50305 12.5152 1.22961C12.2457 3.28625 11.4195 5.14367 10.066 6.68469C9.53862 7.29407 9.09917 7.67492 8.00346 8.48938C5.0855 10.6749 3.398 13.6984 3.11089 17.2667C2.87651 20.1437 3.86675 23.2843 5.73589 25.5988C6.23979 26.2198 7.20659 27.1456 7.86284 27.632C10.2593 29.4015 13.1656 30.2159 16.0718 29.9347C19.2066 29.63 22.0425 28.1241 24.0816 25.6866C26.0328 23.3546 27.0347 20.2491 26.7945 17.2902C26.5718 14.5011 25.5816 12.1808 23.73 10.1183C23.1617 9.49133 22.9859 9.36828 22.6226 9.36828C22.2124 9.36828 22.0249 9.53235 21.5738 10.2823C21.2046 10.9034 20.5425 11.7999 20.3023 12.0167C20.191 12.1163 20.191 12.1105 20.2437 11.6652C20.3199 11.0148 20.2554 9.50891 20.1148 8.72375C19.6929 6.31555 18.6265 4.18274 16.9742 2.46594C16.2476 1.71008 15.732 1.27063 14.9761 0.766722C13.8218 -0.0008564 13.4058 -0.141481 13.0191 0.12219ZM14.8999 2.89953C16.3707 4.12414 17.5074 5.85266 18.0816 7.73938C18.4097 8.82922 18.4917 9.42688 18.4917 10.6573C18.4917 11.882 18.4156 12.4034 18.0757 13.546C17.7945 14.4894 17.7769 14.6769 17.9527 14.9288C18.3042 15.4445 18.7613 15.5148 19.3296 15.1398C20.4195 14.4249 21.5914 13.3175 22.3355 12.3155C22.6753 11.8527 22.7925 11.7355 22.8511 11.7823C22.9976 11.9113 23.7535 13.0831 23.9996 13.5812C25.4175 16.4113 25.4234 19.7804 24.0171 22.5929C23.191 24.2335 22.0484 25.5284 20.5308 26.5421C18.3453 28.007 15.5738 28.5519 13.0074 28.0363C9.36284 27.298 6.48589 24.7433 5.34331 21.2277C4.28862 17.9874 4.898 14.5597 7.01323 11.8585C7.54643 11.1788 8.36675 10.4113 9.30425 9.71399C10.189 9.05774 11.1265 8.18469 11.689 7.49328C12.691 6.2511 13.5757 4.54016 13.9273 3.15735C13.98 2.94641 14.0503 2.67688 14.0796 2.55383L14.1382 2.32532L14.2964 2.43078C14.3843 2.48352 14.6539 2.69446 14.8999 2.89953Z" fill="white"/>
</svg>
