<svg width="107" height="107" viewBox="0 0 107 107" fill="none" xmlns="http://www.w3.org/2000/svg">
<g clip-path="url(#clip0_213_659)">
<path d="M12.5887 0.624523C12.2738 0.74132 12.0402 0.913977 11.893 1.13234C11.8117 1.24913 11.0754 2.91476 10.2578 4.83429C8.78009 8.29757 8.76993 8.32804 8.61251 8.35343C8.52618 8.36359 6.78946 8.52609 4.74805 8.7089C0.802351 9.06437 0.827742 9.05929 0.467195 9.36905C0.116804 9.66359 -0.0761644 10.2984 0.0457106 10.7503C0.0761793 10.8671 0.177742 11.0651 0.269148 11.187C0.355476 11.314 1.65548 12.487 3.14844 13.7921C4.64141 15.0921 5.92618 16.2194 6.00235 16.2956L6.14454 16.4276L5.30157 20.1093C4.75313 22.5163 4.4586 23.8976 4.45352 24.0956C4.44844 24.6339 4.72266 25.0808 5.21524 25.3194C5.57071 25.4972 6.00743 25.5073 6.34766 25.355C6.47462 25.2991 7.7543 24.5476 9.19141 23.6894C10.6285 22.8312 12.0504 21.9831 12.3449 21.8054C12.6395 21.6276 12.9188 21.4702 12.9594 21.455C13 21.4398 14.3609 22.2218 16.2297 23.339C17.9867 24.3901 19.5254 25.2991 19.6524 25.355C19.9926 25.5124 20.4293 25.4972 20.7848 25.3194C21.2774 25.0808 21.5516 24.6339 21.5465 24.0956C21.5414 23.8976 21.2469 22.5163 20.6984 20.1093L19.8606 16.4276L19.9723 16.321C20.0332 16.2601 21.318 15.1327 22.8262 13.8124C24.3344 12.4972 25.6445 11.314 25.7309 11.187C25.9391 10.9026 26.0203 10.6132 25.9848 10.273C25.9289 9.75499 25.5836 9.29288 25.1164 9.11515C24.9742 9.05929 23.6793 8.92218 21.0844 8.68859C18.982 8.49562 17.2504 8.32804 17.2402 8.31788C17.2301 8.30773 16.5395 6.7132 15.7117 4.77335C14.884 2.83351 14.1426 1.16281 14.0664 1.06124C13.7516 0.670227 13.0406 0.456945 12.5887 0.624523Z" fill="url(#paint0_linear_213_659)"/>
</g>
<defs>
<linearGradient id="paint0_linear_213_659" x1="12.757" y1="13.9719" x2="13" y2="13.9719" gradientUnits="userSpaceOnUse">
<stop stop-color="#D9D9D9"/>
<stop offset="1" stop-color="#666666" stop-opacity="0"/>
</linearGradient>
<clipPath id="clip0_213_659">
<rect width="26" height="26" fill="white"/>
</clipPath>
</defs>
</svg>
