<svg width="18" height="18" viewBox="0 0 18 18" fill="none" xmlns="http://www.w3.org/2000/svg">
<path d="M4.43674 1.01953C3.31526 1.16016 2.37659 1.6207 1.58206 2.42227C0.868384 3.13945 0.439477 3.89883 0.193384 4.88672C-0.242554 6.59883 0.0738524 8.28633 1.12151 9.87187C1.79299 10.8879 2.66135 11.8195 4.25393 13.2398C5.26643 14.1434 8.35667 16.7801 8.50784 16.868C8.64846 16.9523 8.7012 16.9629 9.00002 16.9629C9.29885 16.9629 9.35159 16.9523 9.49221 16.868C9.64338 16.7801 12.7407 14.1398 13.7461 13.2398C15.3457 11.8125 16.2071 10.8844 16.8785 9.87187C17.9262 8.28633 18.2426 6.59883 17.8067 4.88672C17.5606 3.89883 17.1317 3.13945 16.418 2.42227C15.7078 1.70859 14.9485 1.29727 13.9535 1.08633C13.4543 0.980859 12.5332 0.970312 12.0973 1.06875C10.8809 1.33242 9.94924 1.94062 9.09846 3.02344L9.00002 3.14648L8.9051 3.02344C8.06487 1.96172 7.14729 1.35351 5.97659 1.08633C5.62854 1.00547 4.82698 0.970312 4.43674 1.01953ZM5.61096 2.0918C6.6094 2.26758 7.47073 2.84414 8.15276 3.79687C8.26877 3.96211 8.41292 4.15898 8.46916 4.23984C8.72932 4.60547 9.27073 4.60547 9.53088 4.23984C9.58713 4.15898 9.73127 3.96211 9.84729 3.79687C10.7789 2.49609 12.0762 1.88437 13.4895 2.07773C15.0574 2.29219 16.2809 3.38906 16.7485 5.00273C17.1176 6.27891 16.9559 7.61836 16.2844 8.82422C15.7219 9.8332 14.7832 10.8914 13.1485 12.3574C12.3574 13.0641 9.03166 15.9258 9.00002 15.9258C8.96487 15.9258 5.65315 13.0746 4.85159 12.3574C2.33791 10.1039 1.34651 8.69766 1.10745 7.04883C0.952759 5.98359 1.17424 4.8375 1.71213 3.93398C2.52073 2.57344 4.09573 1.82812 5.61096 2.0918Z" fill="white"/>
</svg>
