<svg width="95" height="96" viewBox="0 0 95 96" fill="none" xmlns="http://www.w3.org/2000/svg">
<path d="M44.3596 0.29649C43.7631 0.547535 43.7631 32.273 44.3282 32.6182C44.548 32.7751 45.9924 32.8692 47.4995 32.8379C49.6346 32.8065 50.4196 32.681 50.8278 32.3044C51.2674 31.8337 51.3302 30.1705 51.4244 16.4887C51.4558 7.04326 51.3616 1.01824 51.1732 0.735817C50.9534 0.390633 50.137 0.23373 47.8135 0.202351C46.118 0.170971 44.548 0.202351 44.3596 0.29649Z" fill="white"/>
<path d="M27.6548 8.86343C27.3408 9.0831 27.2466 10.6207 27.2466 16.5516C27.2466 20.631 27.3408 24.0829 27.4664 24.2712C27.5606 24.4281 28.8479 24.585 30.3237 24.585C32.7414 24.585 33.0554 24.5222 33.7461 23.8005L34.5311 23.0473V16.0181C34.5311 8.95758 34.5311 8.95758 33.8403 8.76929C32.7414 8.48687 28.1571 8.54963 27.6548 8.86343Z" fill="white"/>
<path d="M60.7812 9.05172C60.687 9.33414 60.687 12.7546 60.7498 16.6457C60.844 20.5683 60.9068 23.9574 60.9068 24.177C60.9068 24.4594 61.5348 24.585 63.1989 24.585C65.6166 24.585 67.7518 24.0201 68.1599 23.267C68.3483 22.9532 68.5995 11.2797 68.4739 8.95758C68.4425 8.67515 67.4692 8.58101 64.7061 8.58101C61.6604 8.58101 60.9382 8.67515 60.7812 9.05172Z" fill="white"/>
<path d="M8.75315 27.5973C8.59616 27.8169 8.50196 29.4487 8.53336 31.206L8.62756 34.4696L16.2889 34.5637C22.2233 34.6265 24.013 34.5323 24.2328 34.2499C24.3584 34.0302 24.484 32.7436 24.484 31.3943C24.484 28.6328 24.0444 27.8797 22.2233 27.5973C20.0567 27.2207 9.06714 27.2521 8.75315 27.5973Z" fill="white"/>
<path d="M70.7655 28.225C70.4829 29.3233 70.8597 32.3044 71.4249 33.4027C71.7075 33.9048 72.2099 34.3755 72.6181 34.4697C72.9948 34.5638 76.3545 34.5952 80.0596 34.5638L86.8103 34.4697L86.9045 31.363C86.9673 29.3547 86.8731 28.1308 86.622 27.8484C86.3394 27.5032 84.7694 27.4091 78.6152 27.4091H70.9539L70.7655 28.225Z" fill="white"/>
<path d="M0.275274 44.4802C-0.0701129 44.8568 -0.101512 50.6307 0.243876 51.1956C0.463667 51.5094 3.85474 51.6035 16.4771 51.6035C25.2374 51.6035 32.4905 51.5094 32.5847 51.4152C32.6789 51.3211 32.7417 49.909 32.7417 48.2772C32.7417 46.0492 32.6475 45.1392 32.3021 44.794C31.8939 44.4174 29.4762 44.3233 16.1945 44.2605C6.64924 44.2291 0.463667 44.3233 0.275274 44.4802Z" fill="white"/>
<path d="M62.1626 46.8963C62.1626 48.4653 62.3196 50.0029 62.508 50.3795C63.293 51.823 64.0151 51.8857 79.7146 51.8857C93.4672 51.8857 94.5034 51.8544 94.786 51.3209C95.1 50.6933 95.0686 44.9821 94.6918 44.4172C94.5348 44.1348 90.7355 44.0407 78.3016 44.0407H62.1626V46.8963Z" fill="white"/>
<path d="M8.56477 61.0172C8.09379 61.4879 7.99959 67.4502 8.40778 68.1405C8.62757 68.4543 10.3859 68.5485 16.1947 68.5485C20.3079 68.5485 23.8874 68.5485 24.1072 68.5171C24.6724 68.5171 24.641 62.241 24.0444 61.4251C23.6362 60.8603 23.1024 60.8289 16.2575 60.7348C10.6999 60.672 8.84736 60.7348 8.56477 61.0172Z" fill="white"/>
<path d="M71.3619 60.8918C70.4513 61.0801 70.3571 61.4253 70.6397 64.2495C70.7967 65.9127 71.0793 66.9482 71.4875 67.5131L72.1154 68.3604H79.6198H87.1241L87.2183 64.8144L87.3125 61.2998L86.4961 60.986C85.7111 60.6722 72.8062 60.6094 71.3619 60.8918Z" fill="white"/>
<path d="M45.3642 62.7747C43.9198 63.1513 43.9512 62.7433 43.9512 79.1866C43.9512 93.1508 44.014 94.8454 44.4536 95.0023C44.7362 95.0964 46.4003 95.1906 48.1901 95.1906C50.859 95.1906 51.4556 95.0964 51.6125 94.6885C51.9265 93.8412 51.8323 64.2182 51.487 63.3709C51.2044 62.5864 51.1102 62.555 48.5983 62.5864C47.1539 62.6178 45.7096 62.7119 45.3642 62.7747Z" fill="white"/>
<path d="M28.0627 71.0592C26.6184 71.7809 26.3672 73.0989 26.3672 79.6887C26.3672 83.3289 26.4928 86.0589 26.6812 86.4355C26.9952 86.969 27.372 87.0317 30.9514 87.0317H34.8449L34.7821 78.9356L34.6879 70.8709L31.705 70.8081C30.0723 70.7767 28.4395 70.9023 28.0627 71.0592Z" fill="white"/>
<path d="M61.942 71.3414C60.7174 72.4711 60.529 73.7891 60.686 80.3162C60.7802 83.7053 60.9686 86.5609 61.0942 86.7178C61.2512 86.8747 62.9153 87.0316 64.7993 87.0943C67.9705 87.1885 68.2531 87.1257 68.4729 86.5609C68.7555 85.8078 68.8497 72.4397 68.5671 71.4042C68.3787 70.7452 68.2217 70.7138 65.49 70.7138C63.0409 70.7138 62.4758 70.808 61.942 71.3414Z" fill="white"/>
</svg>
