<svg width="28" height="27" viewBox="0 0 28 27" fill="none" xmlns="http://www.w3.org/2000/svg">
<path d="M11.7833 7.03835C10.1422 7.29335 8.78111 8.14085 7.84778 9.49835C7.26444 10.3308 7.00778 11.2233 7 12.3783C7 13.9233 7.49778 15.1008 8.63333 16.2033C9.19333 16.7508 9.41111 16.9008 10.0333 17.1933C11.0522 17.6658 11.6978 17.8008 12.8256 17.7483C13.8289 17.7108 14.3811 17.5683 15.2289 17.1333C15.5167 16.9908 15.7811 16.8708 15.82 16.8708C15.8667 16.8708 16.9556 17.8833 18.2389 19.1208L20.58 21.3708H20.9378C21.5522 21.3708 21.9878 20.8608 21.8789 20.2758C21.8478 20.1183 21.21 19.4508 19.4911 17.7858C17.3289 15.6858 17.1578 15.5058 17.2511 15.3633C18.2933 13.7583 18.4411 11.8158 17.6556 10.1508C16.9789 8.71085 15.6567 7.62335 14.0622 7.19585C13.4167 7.02335 12.3589 6.94835 11.7833 7.03835ZM13.3233 8.88335C15.0656 9.23585 16.2556 10.6458 16.2711 12.3708C16.2789 13.8183 15.4856 15.0183 14.0933 15.6558C13.5644 15.9033 13.4167 15.9333 12.7478 15.9558C12.1722 15.9783 11.8922 15.9558 11.5733 15.8583C10.4378 15.4983 9.73 14.9283 9.24 13.9683C8.92889 13.3758 8.90556 13.2783 8.88222 12.5883C8.85111 11.9958 8.88222 11.7558 9.01444 11.3433C9.39556 10.1283 10.4767 9.16085 11.76 8.89085C12.4056 8.75585 12.6856 8.74835 13.3233 8.88335Z" fill="white"/>
</svg>
