<svg width="15" height="17" viewBox="0 0 15 17" fill="none" xmlns="http://www.w3.org/2000/svg">
<path d="M3.01157 0.0714283C2.87229 0.15357 2.78657 0.310711 2.78657 0.474995V0.596422L2.52229 0.617849C1.91158 0.671421 1.32588 0.95356 0.854454 1.42498C0.372317 1.91069 0.12232 2.41426 0.0401781 3.07139C-0.0133927 3.48924 -0.0133927 14.1177 0.0401781 14.5355C0.161605 15.5034 0.718742 16.2891 1.59016 16.7141C2.21872 17.0177 1.81873 16.9998 7.43652 16.9998C11.715 16.9998 12.4436 16.9927 12.6436 16.9462C13.8079 16.6784 14.6722 15.7212 14.8186 14.5355C14.8721 14.1177 14.8721 3.48567 14.8186 3.07139C14.7364 2.41426 14.4864 1.91069 14.0043 1.42498C13.5329 0.95356 12.9472 0.671421 12.3365 0.617849L12.0722 0.596422V0.467852C12.0722 0.199997 11.8543 0 11.565 0C11.29 0 11.115 0.160713 11.0758 0.446423L11.0543 0.589279L10.1901 0.599993L9.32221 0.607136V0.499994C9.32221 0.239283 9.09007 0 8.8365 0C8.54365 0 8.34365 0.167856 8.3008 0.449995L8.27937 0.607136H7.42938H6.58296L6.56153 0.464281C6.5401 0.285711 6.46153 0.160713 6.31153 0.0678558C6.15082 -0.0321426 5.85797 -0.0107136 5.7294 0.110714C5.6044 0.224997 5.53654 0.364281 5.53654 0.499994V0.607136L4.67227 0.599993L3.80442 0.589279L3.78299 0.446423C3.77228 0.367853 3.74371 0.267855 3.71871 0.221426C3.60442 0.0107136 3.23657 -0.0678558 3.01157 0.0714283ZM5.53654 1.71784C5.53654 1.99641 5.77225 2.22497 6.06154 2.22497C6.31153 2.22497 6.52582 2.02498 6.56153 1.75712L6.58296 1.60712H7.42938H8.2758L8.29722 1.75712C8.33294 2.02498 8.54722 2.22497 8.79722 2.22497C9.0865 2.22497 9.32221 1.99641 9.32221 1.71784V1.60712L10.1901 1.61427L11.0543 1.62498L11.0722 1.77141C11.0972 1.95712 11.1829 2.08926 11.3293 2.16426C11.6543 2.33212 12.0722 2.10712 12.0722 1.75712C12.0722 1.64998 12.0793 1.64284 12.19 1.64284C12.7257 1.64641 13.3507 2.06783 13.6186 2.60711C13.79 2.94639 13.8257 3.21425 13.815 4.03567L13.8043 4.73209H7.42938H1.05445L1.04374 4.03567C1.03302 3.21425 1.06874 2.94639 1.24016 2.60711C1.50802 2.06783 2.13301 1.64641 2.67229 1.64284C2.77943 1.64284 2.78657 1.64998 2.78657 1.75712C2.78657 2.00712 3.02229 2.22497 3.28657 2.22497C3.54728 2.22497 3.78656 2.00712 3.78656 1.76427C3.78656 1.70355 3.79728 1.64284 3.81156 1.63212C3.82228 1.61784 4.2187 1.60712 4.68655 1.60712H5.53654V1.71784ZM13.815 10.0642C13.8222 13.7713 13.815 14.3927 13.7686 14.5927C13.6257 15.2105 13.1936 15.6891 12.5829 15.8998L12.34 15.982H7.42938H2.51872L2.27587 15.8998C1.66873 15.6891 1.23659 15.2141 1.09017 14.5998C1.04374 14.407 1.0366 13.7427 1.0366 10.0856C1.0366 7.72848 1.04731 5.78565 1.06159 5.77493C1.07231 5.76065 3.94728 5.7535 7.44366 5.75708L13.8043 5.76779L13.815 10.0642Z" fill="white"/>
<path d="M4.23305 9.28555C3.92948 9.48555 3.92948 9.9534 4.23305 10.1427C4.34733 10.2141 4.40447 10.2141 7.42944 10.2141C10.4544 10.2141 10.5115 10.2141 10.6258 10.1427C10.9294 9.95697 10.9294 9.47126 10.6258 9.28555C10.5115 9.21412 10.4544 9.21412 7.42587 9.21412C4.41519 9.21412 4.33662 9.21769 4.23305 9.28555Z" fill="white"/>
<path d="M4.23305 11.607C3.92948 11.807 3.92948 12.2748 4.23305 12.4641C4.34376 12.5319 4.40804 12.5355 6.05088 12.5355C7.92229 12.5355 7.87943 12.5391 8.04015 12.3141C8.15086 12.1605 8.15086 11.9105 8.04015 11.757C7.87943 11.532 7.92586 11.5355 6.04731 11.5355C4.40804 11.5355 4.33662 11.5391 4.23305 11.607Z" fill="white"/>
</svg>
