<svg width="18" height="16" viewBox="0 0 18 16" fill="none" xmlns="http://www.w3.org/2000/svg">
<path d="M1.11748 0.0573834C0.677158 0.16936 0.327261 0.457299 0.126758 0.87321L0.0166776 1.10116L0.0048833 6.53601C-0.00691099 12.5467 -0.0187053 12.1908 0.244701 12.5827C0.401958 12.8147 0.665364 13.0306 0.92877 13.1386C1.10568 13.2106 1.24722 13.2186 3.31908 13.2386C5.50496 13.2586 5.52068 13.2586 5.70153 13.3506C5.83913 13.4185 6.09467 13.6785 6.80233 14.4823C7.43529 15.1982 7.79305 15.5741 7.95031 15.6821C8.5754 16.106 9.42459 16.106 10.0458 15.6821C10.203 15.5781 10.5372 15.2302 11.064 14.6343C11.4965 14.1424 11.925 13.6625 12.0193 13.5665C12.3299 13.2466 12.208 13.2626 14.6809 13.2386C16.7528 13.2186 16.8943 13.2106 17.0712 13.1386C17.3346 13.0306 17.598 12.8147 17.7553 12.5827C18.0187 12.1908 18.0069 12.5467 17.9951 6.53601L17.9833 1.10116L17.8732 0.87321C17.6649 0.441302 17.2914 0.145365 16.8314 0.0453859C16.5169 -0.0225996 1.38875 -0.0106022 1.11748 0.0573834ZM12.2002 4.00854C12.4086 4.07253 12.6641 4.33248 12.727 4.54443C12.7978 4.79238 12.786 4.96434 12.6759 5.1843C12.613 5.30427 11.8503 6.19608 10.6394 7.55979C9.13367 9.25543 8.66583 9.75932 8.52823 9.82731C8.30807 9.94329 8.02107 9.94728 7.80484 9.83931C7.6987 9.79132 7.22299 9.33142 6.47995 8.57158C5.2101 7.27585 5.20224 7.25985 5.23369 6.85594C5.27693 6.32405 5.81947 5.96413 6.31483 6.13609C6.47602 6.19208 6.62935 6.32805 7.31342 7.0239L8.12329 7.84773L9.74304 6.01212C11.0404 4.54443 11.4021 4.16051 11.5633 4.06853C11.7795 3.94856 11.9486 3.93256 12.2002 4.00854Z" fill="white"/>
</svg>
