<svg width="20" height="20" viewBox="0 0 20 20" fill="none" xmlns="http://www.w3.org/2000/svg">
<g clip-path="url(#clip0_354_286)">
<path d="M1.32812 2.54293C0.703125 2.66402 0.160156 3.21871 0.0390625 3.86714C-0.015625 4.14839 -0.015625 12.5312 0.0390625 12.8164C0.167969 13.4921 0.75 14.0429 1.45312 14.1406C1.58984 14.164 3.76172 14.1796 6.35156 14.1796H11.0039L11.0938 14.4218C11.9336 16.7656 14.4492 18.0234 16.7969 17.2812C17.1797 17.164 17.6836 16.9179 17.7852 16.8046C18.0273 16.539 17.8555 16.1328 17.5 16.1328C17.4258 16.1328 17.25 16.1875 17.1094 16.2539C16.4141 16.5859 15.7656 16.707 15.0391 16.6367C13.4609 16.4804 12.1719 15.3593 11.7734 13.789C11.7148 13.5586 11.6992 13.3671 11.7031 12.8711C11.707 12.3086 11.7188 12.2109 11.8125 11.8984C12.1953 10.6367 13.1367 9.69527 14.3945 9.31246C14.7109 9.21871 14.8086 9.20699 15.3711 9.20308C15.8672 9.19918 16.0586 9.2148 16.2891 9.27339C17.5977 9.60543 18.5938 10.5429 18.9922 11.8125C19.1367 12.2812 19.2148 13.1445 19.1445 13.4921C19.0781 13.8046 18.8203 14.0703 18.5312 14.1328C18.1172 14.2226 17.7539 14.039 17.5742 13.6523C17.5117 13.5156 17.5 13.3867 17.5 12.5468C17.5 11.5039 17.4844 11.4218 17.2656 11.3086C17.125 11.2343 17.043 11.2343 16.8984 11.3086C16.793 11.3632 16.7812 11.3593 16.6445 11.2539C16.0508 10.789 15.1602 10.7148 14.4492 11.0781C14.2188 11.1914 13.832 11.5468 13.6758 11.7851C12.9375 12.8984 13.4766 14.4414 14.7578 14.8867C15.4258 15.1211 16.2383 14.957 16.7734 14.4804L16.9688 14.3086L17.168 14.5078C18.1016 15.4414 19.7148 14.9375 19.9609 13.6328C19.9805 13.5195 20 13.2421 20 13.0117C20 11.4961 19.3359 10.1484 18.1523 9.25386C17.5898 8.82808 16.707 8.4648 16.0273 8.37886L15.8203 8.35152V6.11714C15.8203 4.02339 15.8164 3.86714 15.7461 3.66402C15.5508 3.09761 15.1094 2.68746 14.5508 2.55464C14.3516 2.51168 13.3086 2.49996 7.91016 2.50386C4.38672 2.50777 1.42578 2.52339 1.32812 2.54293ZM14.1719 3.35543C14.1523 3.41402 8.28125 8.21871 8.17188 8.26949C8.03125 8.33199 7.77734 8.33199 7.65625 8.26949C7.55469 8.2148 1.94531 3.63277 1.73828 3.43355L1.62109 3.32027H7.90625C11.5703 3.32027 14.1797 3.33589 14.1719 3.35543ZM4.03906 6.40621C5.73047 7.79293 7.1875 8.9648 7.28125 9.01168C7.64453 9.19527 8.13672 9.20308 8.52344 9.03121C8.61719 8.99214 10.0859 7.81246 11.7891 6.41402C13.4961 5.01168 14.9023 3.86714 14.9219 3.86714C14.9883 3.86714 15 4.13277 15 6.19527V8.34761L14.6992 8.39839C13.1016 8.6523 11.7148 9.78121 11.1328 11.2929C10.9336 11.8164 10.7969 12.6914 10.8477 13.1211L10.8711 13.3203L6.12109 13.3125L1.375 13.3007L1.20312 13.1836C1.11328 13.1171 0.992188 12.9843 0.9375 12.8906L0.839844 12.7148V8.35933C0.839844 5.9648 0.851562 3.97261 0.871094 3.93355C0.886719 3.89449 0.914062 3.86714 0.933594 3.87496C0.953125 3.88277 2.35156 5.01949 4.03906 6.40621ZM15.9453 11.789C16.1602 11.8945 16.4219 12.1445 16.5234 12.3437C16.6914 12.6718 16.6914 13.1445 16.5273 13.4726C16.2148 14.082 15.4492 14.332 14.8438 14.0234C14.6445 13.9218 14.3945 13.6601 14.2891 13.4453C14.1602 13.1796 14.1602 12.6367 14.293 12.3828C14.457 12.0664 14.7422 11.8242 15.0781 11.7148C15.2695 11.6523 15.75 11.6953 15.9453 11.789Z" fill="white"/>
</g>
<defs>
<clipPath id="clip0_354_286">
<rect width="20" height="20" fill="white"/>
</clipPath>
</defs>
</svg>
