<svg width="20" height="20" viewBox="0 0 20 20" fill="none" xmlns="http://www.w3.org/2000/svg">
<path d="M9.74109 0.4468C8.92274 0.585694 8.31085 0.844714 7.66143 1.33647C6.65538 2.09476 6.01722 3.27724 5.90836 4.58735L5.88208 4.89893H7.01576H8.14568V4.79382C8.14568 4.73751 8.17196 4.57234 8.20199 4.42969C8.41596 3.41614 9.36195 2.64659 10.398 2.64659C11.4303 2.64659 12.3801 3.41989 12.5941 4.42969C12.6241 4.57234 12.6504 4.73751 12.6504 4.79382V4.89893H13.7803H14.914L14.8877 4.58735C14.715 2.53772 13.281 0.904776 11.2802 0.488093C10.8785 0.401753 10.1202 0.382984 9.74109 0.4468Z" fill="white"/>
<path d="M5.55936 6.06629C4.91369 6.19392 4.36562 6.7495 4.24175 7.41018C4.18919 7.68422 4.18919 13.3751 4.24175 13.6492C4.36938 14.3249 4.91369 14.8692 5.5894 14.9968C5.70952 15.0193 6.59544 15.0344 7.81171 15.0344H9.83506V15.68V16.3294L9.61733 16.4421C9.3433 16.5847 9.058 16.87 8.91535 17.144L8.80274 17.3618H6.43778H4.07282L3.9602 17.1478C3.63361 16.5209 2.91662 16.153 2.23716 16.2656C1.30995 16.4195 0.668032 17.2792 0.818188 18.1726C0.942067 18.9121 1.49389 19.464 2.23716 19.5841C2.91662 19.6967 3.63361 19.3288 3.9602 18.7019L4.07282 18.4879H6.43778H8.80274L8.91535 18.7019C9.2457 19.3363 9.9702 19.7042 10.6609 19.5841C11.179 19.494 11.6407 19.1599 11.8809 18.7019L11.9936 18.4879H14.3585H16.7235L16.8361 18.7019C17.1627 19.3288 17.8797 19.6967 18.5591 19.5841C19.4863 19.4302 20.1283 18.5705 19.9781 17.6771C19.8542 16.9376 19.3024 16.3858 18.5591 16.2656C17.8797 16.153 17.1627 16.5209 16.8361 17.1478L16.7235 17.3618H14.3585H11.9936L11.8809 17.144C11.7383 16.87 11.453 16.5847 11.179 16.4421L10.9612 16.3294V15.68V15.0344H12.9846C14.2008 15.0344 15.0868 15.0193 15.2069 14.9968C15.8826 14.8692 16.4269 14.3249 16.5545 13.6492C16.6071 13.3751 16.6071 7.68422 16.5545 7.41018C16.4269 6.73448 15.8826 6.19017 15.2069 6.06253C14.9554 6.01749 5.80337 6.01749 5.55936 6.06629ZM10.7022 8.31487C11.4042 8.45001 11.941 9.00559 12.0574 9.72634C12.17 10.4058 11.8021 11.1228 11.1752 11.4494L10.9612 11.562V11.9486C10.9612 12.4179 10.8937 12.5868 10.6609 12.7069C10.4732 12.8008 10.3231 12.8008 10.1354 12.7069C9.90263 12.5868 9.83506 12.4179 9.83506 11.9486V11.562L9.62109 11.4494C8.99418 11.1228 8.6263 10.4058 8.73892 9.72634C8.89658 8.7691 9.775 8.13844 10.7022 8.31487Z" fill="white"/>
<path d="M10.128 9.48245C9.96659 9.56503 9.83521 9.78651 9.83521 9.9667C9.83521 10.1544 9.96659 10.3684 10.1355 10.4547C10.2143 10.496 10.3345 10.5298 10.3983 10.5298C10.6836 10.5298 10.9614 10.252 10.9614 9.9667C10.9614 9.77901 10.83 9.56503 10.6611 9.47869C10.4771 9.38485 10.3082 9.38485 10.128 9.48245Z" fill="white"/>
</svg>
