<svg width="19" height="19" viewBox="0 0 19 19" fill="none" xmlns="http://www.w3.org/2000/svg">
<path d="M8.73927 0.0408134C7.24747 0.244915 5.9338 1.20234 5.25099 2.5791C5.02833 3.03183 4.92442 3.36581 4.84278 3.89648C4.67579 4.97636 4.92442 6.16015 5.50333 7.03222C6.31231 8.26054 7.55548 9.01386 8.9545 9.12519C10.3684 9.23652 11.567 8.80976 12.5578 7.83749C13.4744 6.94316 13.9234 5.87441 13.9234 4.583C13.9272 3.20624 13.4002 2.03359 12.3797 1.14296C11.7266 0.575189 11.0994 0.259759 10.2979 0.0927668C9.94532 0.018548 9.10665 -0.0111389 8.73927 0.0408134Z" fill="white"/>
<path d="M5.29548 9.20312C3.62927 9.39238 2.48259 10.5576 1.92966 12.632C1.59568 13.8863 1.4658 15.7307 1.65134 16.5879C1.89627 17.7346 2.73865 18.577 3.95213 18.8924L4.28611 18.9814H9.48142H14.6767L14.9996 18.8961C15.5488 18.7514 15.8976 18.5844 16.2576 18.2949C16.7549 17.8941 17.1334 17.3115 17.2967 16.6807C17.4525 16.0795 17.4265 14.6916 17.2373 13.5635C16.7771 10.8582 15.5748 9.40723 13.6228 9.20684C13.4187 9.18457 13.1961 9.17715 13.1293 9.19199C12.9474 9.22539 12.6951 9.35898 12.1236 9.72637C11.515 10.1197 11.4297 10.1643 10.9769 10.3313C10.3683 10.5576 10.0715 10.6133 9.48142 10.6133C8.98416 10.617 8.57595 10.5428 8.05642 10.3572C7.56287 10.1791 7.53318 10.1643 6.80955 9.70781C6.48299 9.5 6.15642 9.30332 6.08591 9.26992C5.9115 9.18828 5.64431 9.16602 5.29548 9.20312Z" fill="white"/>
</svg>
