<svg width="54" height="53" viewBox="0 0 54 53" fill="none" xmlns="http://www.w3.org/2000/svg">
<path d="M23.9945 0.0666008C15.6966 0.927513 8.42548 5.43954 4.00681 12.4721C-2.25816 22.44 -1.0757 35.6753 6.84886 44.2948C11.2572 49.0869 16.7131 51.9393 23.2685 52.8728C24.5028 53.0492 28.5792 53.0388 29.855 52.8625C36.3067 51.9704 41.7626 49.1284 46.1605 44.357C49.7805 40.4362 52.0936 35.4263 52.9026 29.7733C53.0789 28.5494 53.0789 24.4626 52.9026 23.2387C52.2906 18.9237 50.9215 15.2623 48.6499 11.8394C47.6956 10.3872 46.731 9.20474 45.3826 7.84595C41.244 3.65547 36.12 1.07273 30.218 0.201443C28.9422 0.0147362 25.26 -0.0682411 23.9945 0.0666008ZM21.6607 12.9181C22.1171 13.8412 22.2105 13.9553 22.4179 13.9035C23.9427 13.5716 29.16 13.5716 30.6537 13.9035C30.8611 13.9553 30.9441 13.8412 31.4109 12.9181L31.9399 11.8705L32.3236 11.9327C33.9832 12.2024 37.0224 13.1152 38.9102 13.9035C39.8022 14.2769 39.8333 14.308 40.3208 15.0341C41.97 17.4716 43.5881 20.936 44.4387 23.861C44.8639 25.3236 45.3515 27.6677 45.5382 29.2029C45.6834 30.3749 45.7249 35.333 45.59 35.945C45.5278 36.2769 45.3826 36.4013 44.2416 37.1482C41.9285 38.6833 39.8333 39.7309 37.3024 40.6541C36.5763 40.9134 35.9333 41.1312 35.8918 41.1312C35.7258 41.1312 33.7965 38.0506 33.7965 37.7913C33.7965 37.7601 34.0143 37.6564 34.2944 37.5527C35.0101 37.283 36.7734 36.3806 36.8668 36.2458C36.9394 36.1317 36.4311 35.6442 36.2341 35.6338C36.1718 35.6338 35.7465 35.7894 35.2902 35.9865C32.5207 37.1482 29.6994 37.7187 26.598 37.7187C23.227 37.7187 20.8102 37.2104 17.1383 35.7271C16.8479 35.613 16.7753 35.6234 16.4849 35.8309C16.3085 35.9553 16.1633 36.1213 16.1633 36.1939C16.1633 36.2665 16.8687 36.6607 17.7192 37.0756L19.2854 37.8327L18.9017 38.5173C18.3727 39.4716 17.2836 41.1312 17.1798 41.1312C16.9828 41.1312 14.4519 40.1666 13.3835 39.679C10.9356 38.5796 7.60605 36.5258 7.47121 36.0487C7.31562 35.4886 7.3986 30.2297 7.58531 28.8606C7.91723 26.3815 8.49809 24.0374 9.37974 21.631C9.85688 20.324 11.6306 16.7559 12.45 15.4593C13.0931 14.4428 13.1242 14.4117 13.8814 14.0383C14.929 13.5197 17.5118 12.6691 19.3062 12.2439C20.1152 12.0468 20.8621 11.8912 20.9554 11.8912C21.0903 11.8808 21.2977 12.1816 21.6607 12.9181Z" fill="white"/>
<path d="M18.9847 24.3381C16.599 25.282 15.9871 28.9228 17.8852 30.8209C18.5283 31.4744 19.0781 31.713 20.0116 31.7752C20.7065 31.8167 20.8725 31.7856 21.4222 31.5366C24.2332 30.2816 24.3473 25.8525 21.6193 24.4626C20.8829 24.0892 19.7523 24.027 18.9847 24.3381Z" fill="white"/>
<path d="M31.7322 24.3381C30.2386 24.9294 29.2324 26.8794 29.5332 28.5908C29.6888 29.4725 30.0726 30.2504 30.612 30.8002C31.2862 31.4744 31.8255 31.713 32.7694 31.7752C33.4644 31.8167 33.6304 31.7856 34.2008 31.5366C35.2796 31.0491 36.0471 30.0015 36.2961 28.6531C36.6072 26.9831 35.8189 25.2509 34.4083 24.4833C33.6511 24.0788 32.5516 24.0166 31.7322 24.3381Z" fill="white"/>
</svg>
