<svg width="52" height="52" viewBox="0 0 52 52" fill="none" xmlns="http://www.w3.org/2000/svg">
<g clip-path="url(#clip0_65_505)">
<path d="M23.8164 0.883595C15.407 1.61485 7.99293 6.43906 3.8898 13.8633C0.568711 19.8656 -0.13207 27.2391 1.99059 33.9422C3.21949 37.8016 5.28121 41.1531 8.27731 44.1391C11.2429 47.0844 14.7367 49.1359 18.789 50.3141C19.957 50.6492 21.8156 51.0758 22.1203 51.0859C22.2117 51.0859 22.2421 49.207 22.2421 42.0469V33.0078H19.3984H16.5546V29.4531V25.8984H19.3882H22.2218L22.2726 22.3133C22.3234 18.4234 22.3945 17.7836 22.9937 16.1992C24.0398 13.4367 26.3148 11.5984 29.575 10.8977C30.7023 10.6539 33.8812 10.6539 35.9531 10.9078C36.7656 10.9992 37.5273 11.1109 37.6593 11.1414L37.8828 11.1922V14.2695V17.3469L35.1203 17.3875C32.632 17.4281 32.2765 17.4586 31.6875 17.6516C30.5804 18.0172 29.8796 18.7789 29.514 19.9977C29.382 20.4445 29.3515 21.0641 29.3515 23.2273V25.8984H33.0586C36.7351 25.8984 36.7656 25.8984 36.7656 26.1117C36.7656 26.2234 36.5421 27.7773 36.2578 29.5547C35.9836 31.332 35.75 32.8453 35.75 32.8961C35.75 32.9773 34.9476 33.0078 33.2617 33.0078H30.7734V42.0469C30.7734 49.5016 30.7937 51.0859 30.9054 51.0859C30.9867 51.0859 31.6164 50.9336 32.3171 50.7406C36.3289 49.6336 40.0968 47.4805 43.1539 44.5352C47.4601 40.3914 50.0093 35.3641 50.8523 29.3516C51.1062 27.4727 51.0859 24.2734 50.7914 22.3641C49.9586 16.8695 47.5617 12.1164 43.6718 8.21641C39.5078 4.04219 34.5718 1.64531 28.7421 0.975002C27.5132 0.832813 24.9539 0.782032 23.8164 0.883595Z" fill="white"/>
</g>
<defs>
<clipPath id="clip0_65_505">
<rect width="52" height="52" fill="white"/>
</clipPath>
</defs>
</svg>
