<svg width="55" height="55" viewBox="0 0 55 55" fill="none" xmlns="http://www.w3.org/2000/svg">
<path d="M17.192 0.0585976C13.644 0.209122 11.2141 0.660698 9.16048 1.54234C7.23592 2.37022 6.09624 3.1336 4.67701 4.54208C2.7632 6.44513 1.56975 8.58473 0.817132 11.4554C0.150524 13.9929 0 16.9066 0 27.4755C0 37.8725 0.139773 40.8185 0.763374 43.3559C2.31162 49.6671 6.93487 53.6883 13.7407 54.6237C15.6868 54.8817 19.7725 55 27.5782 55C34.8356 55 39.0181 54.8925 40.8996 54.6667C44.7487 54.2151 47.7592 52.8819 50.1354 50.6025C52.8126 48.0221 54.2318 44.9364 54.7479 40.5389C54.9522 38.8186 54.9522 15.8744 54.7479 14.2509C54.3286 10.9609 53.3501 8.25143 51.8019 6.17634C51.0385 5.14417 49.4043 3.58517 48.3828 2.88631C46.0712 1.3273 43.2865 0.467163 39.6202 0.155365C37.8891 0.0155907 20.1273 -0.0596695 17.192 0.0585976ZM40.4481 5.25169C43.5123 5.70326 45.2326 6.46664 46.8883 8.11165C47.9635 9.18683 48.5549 10.133 49.0817 11.5952C49.9633 14.0681 50.0494 15.3798 50.0494 27.5293C50.0494 34.5287 50.0064 37.894 49.9096 39.0229C49.5978 42.7538 48.8559 44.7643 47.1141 46.6244C45.2971 48.5597 43.0285 49.5166 39.5127 49.8392C37.6096 50.0219 21.8798 50.108 18.2565 49.9574C16.6222 49.8929 14.9127 49.7854 14.4503 49.7209C12.4183 49.4413 10.4507 48.721 9.22499 47.8286C8.46162 47.2587 7.23592 45.9255 6.78435 45.1729C5.8812 43.6677 5.34362 41.5496 5.16084 38.8616C4.83828 33.9803 4.9458 17.2291 5.31136 14.4552C5.69842 11.5845 6.59082 9.64915 8.27884 8.01489C10.1281 6.21935 12.558 5.34846 16.3211 5.11192C17.1383 5.06891 22.6324 5.03666 28.5459 5.05816C37.7171 5.07966 39.4696 5.10117 40.4481 5.25169Z" fill="white"/>
<path d="M40.7706 9.84265C39.5557 10.4555 38.9751 11.4017 38.9751 12.7994C38.9751 13.81 39.2116 14.4121 39.8997 15.1003C40.5879 15.7776 41.19 16.0249 42.2006 16.0249C42.921 16.0249 43.1575 15.9819 43.6736 15.7239C44.7595 15.1863 45.3724 14.2509 45.4584 13.0037C45.5337 11.8962 45.2864 11.2511 44.523 10.477C43.8134 9.76739 43.1898 9.5201 42.1469 9.5201C41.5663 9.5201 41.3082 9.58461 40.7706 9.84265Z" fill="white"/>
<path d="M25.0083 13.5629C22.1806 14.079 19.6755 15.4015 17.5681 17.5196C14.7727 20.3043 13.4287 23.562 13.4287 27.4757C13.4287 29.841 13.8695 31.7871 14.8479 33.7439C17.8584 39.7219 24.4815 42.7861 30.9218 41.1841C33.4592 40.5498 35.416 39.4531 37.3191 37.6146C39.0286 35.9588 40.179 34.1525 40.8994 31.9914C41.4155 30.4324 41.609 29.2282 41.609 27.4757C41.609 25.7339 41.4155 24.5189 40.9102 22.9922C40.2221 20.9279 39.2221 19.2936 37.6631 17.6808C35.5343 15.4875 32.8786 14.0682 29.9541 13.5522C28.7607 13.3479 26.1695 13.3479 25.0083 13.5629ZM29.266 18.4872C34.1903 19.4334 37.4589 24.2716 36.5127 29.2282C35.9321 32.2279 33.728 34.8944 30.911 35.9803C29.5348 36.5179 28.7392 36.6469 27.1479 36.5824C26.019 36.5394 25.5782 36.4749 24.8363 36.2383C21.5785 35.2062 19.2024 32.572 18.5358 29.2605C18.2777 27.981 18.3745 25.9919 18.7616 24.7877C19.7722 21.5837 22.4709 19.1431 25.6857 18.498C26.6426 18.3044 28.2984 18.3044 29.266 18.4872Z" fill="white"/>
</svg>
