<svg width="57" height="57" viewBox="0 0 57 57" fill="none" xmlns="http://www.w3.org/2000/svg">
<g clip-path="url(#clip0_65_488)">
<path d="M0.834766 0.300587C0.946094 0.478714 5.82227 7.57031 11.667 16.0869C17.5117 24.6035 22.2988 31.6172 22.2988 31.6729C22.2988 31.7396 17.5006 37.3729 11.6225 44.2084C5.75547 51.0328 0.879297 56.7105 0.790234 56.8107C0.645508 56.9889 0.801367 57 3.08359 57H5.53281L14.9846 46.0119C20.1836 39.9779 24.492 35.0127 24.5477 35.0016C24.6145 34.9793 28.0656 39.9223 32.2182 45.9785L39.7773 57H48.0602C55.9088 57 56.3318 56.9889 56.2316 56.7996C56.176 56.6994 51.1105 49.3184 44.9875 40.4121C38.8645 31.5059 33.8436 24.1916 33.8436 24.1582C33.8436 24.1137 38.4971 18.6809 44.1859 12.0791L54.5172 0.0556641L52.1236 0.0222664C50.1531 0 49.6967 0.0222664 49.552 0.155861C49.4518 0.244923 45.3883 4.9541 40.5232 10.6096C35.6582 16.2762 31.6393 20.8852 31.5947 20.8629C31.5502 20.8295 28.2994 16.1314 24.3695 10.4092L17.2223 0H8.92832H0.645508L0.834766 0.300587ZM32.1736 28.4555C41.6922 42.082 49.5074 53.2705 49.5186 53.3373C49.552 53.4041 48.2049 53.4264 45.8002 53.4152L42.0373 53.3818L24.6924 28.5779C15.1516 14.9291 7.34746 3.74063 7.34746 3.71836C7.34746 3.69609 9.03965 3.67383 11.1104 3.67383L14.8621 3.68496L32.1736 28.4555Z" fill="white"/>
</g>
<defs>
<clipPath id="clip0_65_488">
<rect width="57" height="57" fill="white"/>
</clipPath>
</defs>
</svg>
