<svg width="58" height="58" viewBox="0 0 58 58" fill="none" xmlns="http://www.w3.org/2000/svg">
<path d="M5.13174 1.246C3.16064 1.54053 1.52939 3.20576 1.24619 5.2335C1.09893 6.17373 1.09893 51.8261 1.24619 52.7663C1.54072 54.8507 3.14932 56.4593 5.23369 56.7538C6.17393 56.9011 51.8263 56.9011 52.7665 56.7538C53.7294 56.6179 54.8169 56.0968 55.4513 55.4511C56.1083 54.794 56.6294 53.6952 56.7653 52.6983C56.8899 51.7015 56.8899 6.29834 56.7653 5.30147C56.6294 4.30459 56.1083 3.20576 55.4513 2.54873C54.8169 1.90303 53.7294 1.38194 52.7665 1.246C51.9056 1.12139 5.98135 1.12139 5.13174 1.246ZM45.2899 22.0331L45.3126 32.455L40.6454 37.1222L35.9669 41.8007H32.4892H29.0001L27.2782 44.1229L25.545 46.4339L23.2001 46.4452H20.8438V44.1229V41.8007L16.7997 41.778L12.7442 41.744L12.7103 29.6909L12.6876 17.6378L13.7524 14.9077C14.3415 13.4011 14.8739 12.0417 14.9419 11.8605L15.0665 11.5546L30.1556 11.5772L45.256 11.6112L45.2899 22.0331Z" fill="white"/>
<path d="M17.4453 26.0547V37.043H20.9004H24.3555V39.3879V41.7441L26.7117 39.3879L29.0566 37.043H32.5117H35.9668L38.8328 34.177L41.6875 31.3223V23.1887V15.0664H29.5664H17.4453V26.0547ZM29 25.4883V30.1328H27.2441H25.4883V25.4883V20.8438H27.2441H29V25.4883ZM36.0234 25.4883V30.1328H34.2109H32.3984V25.5676C32.3984 23.0527 32.4324 20.957 32.4777 20.923C32.5117 20.8777 33.3273 20.8438 34.2902 20.8438H36.0234V25.4883Z" fill="white"/>
</svg>
